<svg xmlns="http://www.w3.org/2000/svg" viewBox="0 0 537 239">
    <title>Trace3</title>
    <g id="Logo" data-name="Logo">
      <g id="TRA" transform="translate(0,239) scale(0.1,-0.1)" fill="#000000" stroke="none">
        <!-- TRA -->
        <path d="M2293 1558 c-11 -24 -79 -184 -153 -356 l-133 -312 -67 102 c-37 57 -85 120 -106 142 -29 29 -35 40 -24 44 8 3 31 21 52 41 83 83 74 248 -18 318 -68 52 -74 52 -581 53 l-473 0 0 -55 0 -55 135 0 135 0 0 -345 0 -345 60 0 60 0 0 345 0 345 135 0 135 0 0 -345 0 -345 60 0 60 0 0 175 0 175 43 -6 c87 -14 120 -46 237 -231 l71 -113 88 0 87 0 48 115 48 115 168 0 167 0 51 -112 50 -113 66 -3 c36 -2 66 -2 66 0 0 2 -81 183 -179 403 l-179 400 -45 3 c-45 3 -46 2 -64 -40z m-593 -81 c76 -20 111 -98 74 -168 -20 -39 -68 -59 -144 -59 l-60 0 0 120 0 120 43 -1 c23 0 62 -6 87 -12z m713 -207 l56 -125 -106 -3 c-58 -1 -108 -1 -110 2 -2 2 19 61 48 130 28 70 53 125 54 124 2 -2 28 -59 58 -128z"/>
        <!-- C -->
        <path d="M 3318 1565 L 3400 1539 L 3400 1476 L 3400 1413 L 3351 1436 C 3230 1494 3084 1505 2989 1463 C 2930 1437 2864 1371 2837 1311 C 2804 1241 2807 1123 2842 1054 C 2911 921 3057 865 3231 904 C 3272 913 3329 934 3358 950 L 3411 979 L 3408 912 L 3405 845 L 3340 820 C 3282 799 3259 796 3130 795 C 2993 795 2982 797 2928 822 C 2726 917 2637 1163 2731 1365 C 2759 1425 2850 1519 2908 1549 C 3022 1607 3167 1613 3318 1565 Z"></path>
        <!-- E -->
        <path d="M 3930 1540 L 3930 1490 L 3765 1490 L 3600 1490 L 3600 1370 L 3600 1250 L 3760 1250 L 3920 1250 L 3920 1195 L 3920 1140 L 3760 1140 L 3600 1140 L 3600 1020 L 3600 900 L 3770 900 L 3940 900 L 3940 850 L 3940 800 L 3710 800 L 3480 800 L 3480 1195 L 3480 1590 L 3705 1590 L 3930 1590 L 3930 1540 Z"></path>
      </g>
  <!-- 3 -->
  <g transform="translate(0.000000,239.000000) scale(0.100000,-0.100000)" fill="#00B4F0" stroke="none">
    <path d="M 4437 1654 C 4483 1631 4502 1613 4526 1572 C 4594 1459 4573 1310 4478 1244 L 4449 1223 L 4489 1197 C 4549 1157 4575 1095 4575 990 C 4575 919 4571 897 4550 857 C 4523 802 4480 761 4417 728 C 4359 696 4200 696 4125 727 L 4075 748 L 4072 825 C 4070 867 4073 900 4077 898 C 4162 856 4193 847 4260 843 C 4323 839 4340 842 4367 859 C 4415 889 4434 925 4434 986 C 4434 1071 4384 1124 4290 1137 L 4235 1145 L 4232 1206 L 4229 1268 L 4277 1275 C 4336 1284 4372 1302 4399 1336 C 4445 1395 4434 1481 4373 1527 C 4324 1565 4238 1570 4155 1541 C 4123 1529 4094 1520 4093 1520 C 4091 1520 4090 1549 4090 1584 L 4090 1648 L 4133 1664 C 4198 1687 4209 1689 4297 1686 C 4365 1684 4389 1679 4437 1654 Z"></path>
  </g>
  </g>
</svg>

